<mxfile host="app.diagrams.net" modified="2022-04-06T01:17:36.573Z" agent="5.0 (Windows NT 10.0; Win64; x64) AppleWebKit/537.36 (KHTML, like Gecko) Chrome/99.0.4844.84 Safari/537.36" etag="3jd5sFqZ1vwYm_zp_YRJ" version="17.4.0" type="github">
  <diagram id="C5RBs43oDa-KdzZeNtuy" name="Page-1">
    <mxGraphModel dx="2062" dy="1154" grid="1" gridSize="10" guides="1" tooltips="1" connect="1" arrows="1" fold="1" page="1" pageScale="1" pageWidth="827" pageHeight="1169" math="0" shadow="0">
      <root>
        <mxCell id="WIyWlLk6GJQsqaUBKTNV-0" />
        <mxCell id="WIyWlLk6GJQsqaUBKTNV-1" parent="WIyWlLk6GJQsqaUBKTNV-0" />
        <mxCell id="4pGe8WbjwUxOxHnnWIG8-0" value="action" style="rounded=1;whiteSpace=wrap;html=1;" vertex="1" parent="WIyWlLk6GJQsqaUBKTNV-1">
          <mxGeometry x="240" y="140" width="100" height="25" as="geometry" />
        </mxCell>
        <mxCell id="4pGe8WbjwUxOxHnnWIG8-1" value="addToDisplay" style="rounded=1;whiteSpace=wrap;html=1;" vertex="1" parent="WIyWlLk6GJQsqaUBKTNV-1">
          <mxGeometry x="70" y="465" width="100" height="25" as="geometry" />
        </mxCell>
        <mxCell id="4pGe8WbjwUxOxHnnWIG8-44" style="edgeStyle=orthogonalEdgeStyle;rounded=0;orthogonalLoop=1;jettySize=auto;html=1;entryX=0.5;entryY=0.4;entryDx=0;entryDy=0;entryPerimeter=0;" edge="1" parent="WIyWlLk6GJQsqaUBKTNV-1" source="4pGe8WbjwUxOxHnnWIG8-2" target="4pGe8WbjwUxOxHnnWIG8-6">
          <mxGeometry relative="1" as="geometry" />
        </mxCell>
        <mxCell id="4pGe8WbjwUxOxHnnWIG8-2" value="buttonPress" style="rounded=1;whiteSpace=wrap;html=1;" vertex="1" parent="WIyWlLk6GJQsqaUBKTNV-1">
          <mxGeometry x="70" y="30" width="100" height="25" as="geometry" />
        </mxCell>
        <mxCell id="4pGe8WbjwUxOxHnnWIG8-3" value="calcDisplay" style="rounded=1;whiteSpace=wrap;html=1;" vertex="1" parent="WIyWlLk6GJQsqaUBKTNV-1">
          <mxGeometry x="90" y="645" width="100" height="25" as="geometry" />
        </mxCell>
        <mxCell id="4pGe8WbjwUxOxHnnWIG8-4" value="clear" style="rounded=1;whiteSpace=wrap;html=1;" vertex="1" parent="WIyWlLk6GJQsqaUBKTNV-1">
          <mxGeometry x="100" y="725" width="100" height="25" as="geometry" />
        </mxCell>
        <mxCell id="4pGe8WbjwUxOxHnnWIG8-5" value="digit" style="rounded=1;whiteSpace=wrap;html=1;" vertex="1" parent="WIyWlLk6GJQsqaUBKTNV-1">
          <mxGeometry x="20" y="140" width="100" height="25" as="geometry" />
        </mxCell>
        <mxCell id="4pGe8WbjwUxOxHnnWIG8-46" style="edgeStyle=orthogonalEdgeStyle;rounded=0;orthogonalLoop=1;jettySize=auto;html=1;entryX=0.5;entryY=0;entryDx=0;entryDy=0;" edge="1" parent="WIyWlLk6GJQsqaUBKTNV-1" source="4pGe8WbjwUxOxHnnWIG8-6" target="4pGe8WbjwUxOxHnnWIG8-9">
          <mxGeometry relative="1" as="geometry" />
        </mxCell>
        <mxCell id="4pGe8WbjwUxOxHnnWIG8-47" style="edgeStyle=orthogonalEdgeStyle;rounded=0;orthogonalLoop=1;jettySize=auto;html=1;exitX=0.5;exitY=1;exitDx=0;exitDy=0;" edge="1" parent="WIyWlLk6GJQsqaUBKTNV-1" source="4pGe8WbjwUxOxHnnWIG8-6" target="4pGe8WbjwUxOxHnnWIG8-5">
          <mxGeometry relative="1" as="geometry">
            <Array as="points">
              <mxPoint x="180" y="120" />
              <mxPoint x="70" y="120" />
            </Array>
          </mxGeometry>
        </mxCell>
        <mxCell id="4pGe8WbjwUxOxHnnWIG8-48" style="edgeStyle=orthogonalEdgeStyle;rounded=0;orthogonalLoop=1;jettySize=auto;html=1;exitX=0.5;exitY=1;exitDx=0;exitDy=0;entryX=0.5;entryY=0;entryDx=0;entryDy=0;" edge="1" parent="WIyWlLk6GJQsqaUBKTNV-1" source="4pGe8WbjwUxOxHnnWIG8-6" target="4pGe8WbjwUxOxHnnWIG8-0">
          <mxGeometry relative="1" as="geometry">
            <Array as="points">
              <mxPoint x="180" y="120" />
              <mxPoint x="290" y="120" />
            </Array>
          </mxGeometry>
        </mxCell>
        <mxCell id="4pGe8WbjwUxOxHnnWIG8-6" value="handleEntry" style="rounded=1;whiteSpace=wrap;html=1;" vertex="1" parent="WIyWlLk6GJQsqaUBKTNV-1">
          <mxGeometry x="130" y="90" width="100" height="25" as="geometry" />
        </mxCell>
        <mxCell id="4pGe8WbjwUxOxHnnWIG8-45" style="edgeStyle=orthogonalEdgeStyle;rounded=0;orthogonalLoop=1;jettySize=auto;html=1;exitX=0.5;exitY=1;exitDx=0;exitDy=0;" edge="1" parent="WIyWlLk6GJQsqaUBKTNV-1" source="4pGe8WbjwUxOxHnnWIG8-7">
          <mxGeometry relative="1" as="geometry">
            <mxPoint x="180" y="90" as="targetPoint" />
          </mxGeometry>
        </mxCell>
        <mxCell id="4pGe8WbjwUxOxHnnWIG8-7" value="logKey" style="rounded=1;whiteSpace=wrap;html=1;imageWidth=12;" vertex="1" parent="WIyWlLk6GJQsqaUBKTNV-1">
          <mxGeometry x="190" y="30" width="100" height="25" as="geometry" />
        </mxCell>
        <mxCell id="4pGe8WbjwUxOxHnnWIG8-8" value="operate" style="rounded=1;whiteSpace=wrap;html=1;" vertex="1" parent="WIyWlLk6GJQsqaUBKTNV-1">
          <mxGeometry x="490" y="327.5" width="100" height="25" as="geometry" />
        </mxCell>
        <mxCell id="4pGe8WbjwUxOxHnnWIG8-9" value="operator" style="rounded=1;whiteSpace=wrap;html=1;" vertex="1" parent="WIyWlLk6GJQsqaUBKTNV-1">
          <mxGeometry x="130" y="140" width="100" height="25" as="geometry" />
        </mxCell>
        <mxCell id="4pGe8WbjwUxOxHnnWIG8-10" value="store" style="rounded=1;whiteSpace=wrap;html=1;" vertex="1" parent="WIyWlLk6GJQsqaUBKTNV-1">
          <mxGeometry x="590" y="720" width="100" height="25" as="geometry" />
        </mxCell>
        <mxCell id="4pGe8WbjwUxOxHnnWIG8-32" value="add" style="rounded=1;whiteSpace=wrap;html=1;" vertex="1" parent="WIyWlLk6GJQsqaUBKTNV-1">
          <mxGeometry x="630" y="290" width="100" height="25" as="geometry" />
        </mxCell>
        <mxCell id="4pGe8WbjwUxOxHnnWIG8-33" value="divide" style="rounded=1;whiteSpace=wrap;html=1;" vertex="1" parent="WIyWlLk6GJQsqaUBKTNV-1">
          <mxGeometry x="630" y="365" width="100" height="25" as="geometry" />
        </mxCell>
        <mxCell id="4pGe8WbjwUxOxHnnWIG8-34" value="multiply" style="rounded=1;whiteSpace=wrap;html=1;imageWidth=24;" vertex="1" parent="WIyWlLk6GJQsqaUBKTNV-1">
          <mxGeometry x="630" y="340" width="100" height="25" as="geometry" />
        </mxCell>
        <mxCell id="4pGe8WbjwUxOxHnnWIG8-37" value="subtract" style="rounded=1;whiteSpace=wrap;html=1;imageWidth=24;" vertex="1" parent="WIyWlLk6GJQsqaUBKTNV-1">
          <mxGeometry x="630" y="315" width="100" height="25" as="geometry" />
        </mxCell>
        <mxCell id="4pGe8WbjwUxOxHnnWIG8-39" value="" style="endArrow=classic;html=1;rounded=0;exitX=1;exitY=0.5;exitDx=0;exitDy=0;entryX=0;entryY=0.5;entryDx=0;entryDy=0;" edge="1" parent="WIyWlLk6GJQsqaUBKTNV-1" source="4pGe8WbjwUxOxHnnWIG8-8" target="4pGe8WbjwUxOxHnnWIG8-32">
          <mxGeometry width="50" height="50" relative="1" as="geometry">
            <mxPoint x="820" y="472.5" as="sourcePoint" />
            <mxPoint x="870" y="422.5" as="targetPoint" />
          </mxGeometry>
        </mxCell>
        <mxCell id="4pGe8WbjwUxOxHnnWIG8-40" value="" style="endArrow=classic;html=1;rounded=0;exitX=1;exitY=0.5;exitDx=0;exitDy=0;entryX=0;entryY=0.5;entryDx=0;entryDy=0;" edge="1" parent="WIyWlLk6GJQsqaUBKTNV-1" source="4pGe8WbjwUxOxHnnWIG8-8" target="4pGe8WbjwUxOxHnnWIG8-37">
          <mxGeometry width="50" height="50" relative="1" as="geometry">
            <mxPoint x="600" y="350" as="sourcePoint" />
            <mxPoint x="620" y="312.5" as="targetPoint" />
          </mxGeometry>
        </mxCell>
        <mxCell id="4pGe8WbjwUxOxHnnWIG8-41" value="" style="endArrow=classic;html=1;rounded=0;exitX=1;exitY=0.5;exitDx=0;exitDy=0;entryX=0;entryY=0.5;entryDx=0;entryDy=0;" edge="1" parent="WIyWlLk6GJQsqaUBKTNV-1" source="4pGe8WbjwUxOxHnnWIG8-8" target="4pGe8WbjwUxOxHnnWIG8-34">
          <mxGeometry width="50" height="50" relative="1" as="geometry">
            <mxPoint x="600" y="350" as="sourcePoint" />
            <mxPoint x="620" y="337.5" as="targetPoint" />
          </mxGeometry>
        </mxCell>
        <mxCell id="4pGe8WbjwUxOxHnnWIG8-42" value="" style="endArrow=classic;html=1;rounded=0;exitX=1;exitY=0.5;exitDx=0;exitDy=0;entryX=0;entryY=0.25;entryDx=0;entryDy=0;" edge="1" parent="WIyWlLk6GJQsqaUBKTNV-1" source="4pGe8WbjwUxOxHnnWIG8-8" target="4pGe8WbjwUxOxHnnWIG8-33">
          <mxGeometry width="50" height="50" relative="1" as="geometry">
            <mxPoint x="600" y="350" as="sourcePoint" />
            <mxPoint x="620" y="362.5" as="targetPoint" />
          </mxGeometry>
        </mxCell>
      </root>
    </mxGraphModel>
  </diagram>
</mxfile>
